<?xml version="1.0" ?><svg data-name="图层 1" id="图层_1" viewBox="0 0 500 500" xmlns="http://www.w3.org/2000/svg"><defs><style>.cls-1{fill:none;}.cls-2{fill:#231815;}</style></defs><title/><path class="cls-1" d="M336.56,120.58c-.62,1.22-1.28,2.42-2,3.58a53.73,53.73,0,0,1-14.61,15.19,44.49,44.49,0,0,1-5.27,3.16,53.28,53.28,0,0,1,11.13,7.79,50.34,50.34,0,0,1,10.71,14l.59-1.07a51.17,51.17,0,0,1,13.39-15.6,51.94,51.94,0,0,1,8-5.19A52.51,52.51,0,0,1,336.56,120.58Z"/><path class="cls-1" d="M382.67,256.33a129.66,129.66,0,0,1-29.14,4.06,59.67,59.67,0,0,1,9,20.22A120.92,120.92,0,0,0,382.67,256.33Z"/><path class="cls-1" d="M233.79,349l-15.85,32.19,35.33-35.62H234.64A8.39,8.39,0,0,1,233.79,349Z"/><path class="cls-1" d="M231.07,185a132.45,132.45,0,0,1-8.38-88.66,116.93,116.93,0,0,0-50.72,68,114.58,114.58,0,0,0-2.22,49.54,70.23,70.23,0,0,1,10.64,1.6A82.66,82.66,0,0,1,231.07,185Z"/><path class="cls-2" d="M297.92,151.85c3.45,1.9,7.43,2.51,10.91,4.5A37.86,37.86,0,0,1,319,164.89a36.13,36.13,0,0,1,5.86,9.89c1.78,4.51,2.42,8.91,7.44,11a10.65,10.65,0,0,0,12.16-2.72c2.78-3.21,3.23-7.95,5.2-11.66,4.73-8.91,12.35-14.94,21.79-18.22,4.62-1.6,8.37-4,9.08-9.27a10.7,10.7,0,0,0-7.7-11.75c9.28,2.66,5.31,17.13-4,14.46a54.2,54.2,0,0,1-10.4-4.2,51.94,51.94,0,0,0-8,5.19,51.17,51.17,0,0,0-13.39,15.6l-.59,1.07c.46.9.91,1.8,1.31,2.72a58.82,58.82,0,0,1,2.25,5.77c1,3.07,1.32,2.06-3.54,2.06-5.9,0-4.1,1.15-3.76-1.38.41-3,2.19-6.37,3.73-9.17a50.34,50.34,0,0,0-10.71-14,53.28,53.28,0,0,0-11.13-7.79q-2.49,1.28-5.1,2.31c-1.3.52-3.33,1.67-4.7,1.63q-2.69,1.13-.69-4v-4.15a10.81,10.81,0,0,1,2.74.83,54.15,54.15,0,0,1,7.76,3.33,44.49,44.49,0,0,0,5.27-3.16,53.73,53.73,0,0,0,14.61-15.19c.74-1.16,1.4-2.36,2-3.58a54.06,54.06,0,0,1-2.61-5.71,15.25,15.25,0,0,1-1.18-3.36l-.39-1.38h8.31c0,1.41-1.08,3.47-1.57,4.73a61.81,61.81,0,0,1-2.55,5.71,52.51,52.51,0,0,0,21.93,21.87c.63-.33,1.27-.66,1.92-1,1-.48,2.11-.92,3.18-1.35-.19-4.58,3.52-9.51,9.29-8a37.08,37.08,0,0,1-21-15c-4.31-6.59-5-18.48-14.87-18.87-10.58-.41-11.3,12.07-15.76,18.87a37.25,37.25,0,0,1-19.66,14.61c-4.12,1.38-7.58,3.31-8.83,7.84A10.73,10.73,0,0,0,297.92,151.85Z"/><path class="cls-2" d="M367.51,138.74a10.48,10.48,0,0,0-2,.68c-.64.23-1.27.48-1.9.73a6.79,6.79,0,0,0,5.3,6.51C365.56,145.76,373.1,138.07,367.51,138.74Z"/><path class="cls-2" d="M363.59,140.15c.63-.25,1.26-.5,1.9-.73a10.48,10.48,0,0,1,2-.68c5.59-.67-2,7,1.38,7.91,9.3,2.66,13.27-11.81,4-14.46C367.11,130.64,363.4,135.56,363.59,140.15Z"/><path class="cls-2" d="M363.59,140.15c-1.07.42-2.13.87-3.18,1.35-.66.3-1.29.63-1.92,1a54.2,54.2,0,0,0,10.4,4.2A6.79,6.79,0,0,1,363.59,140.15Z"/><path class="cls-2" d="M336.53,174.86c4.86,0,4.53,1,3.54-2.06a58.82,58.82,0,0,0-2.25-5.77c-.41-.92-.85-1.82-1.31-2.72-1.54,2.8-3.32,6.16-3.73,9.17C332.43,176,330.63,174.86,336.53,174.86Z"/><path class="cls-2" d="M304.17,138.35v4.15q-2,5.08.69,4c1.37,0,3.4-1.11,4.7-1.63q2.61-1,5.1-2.31a54.15,54.15,0,0,0-7.76-3.33A10.81,10.81,0,0,0,304.17,138.35Z"/><path class="cls-2" d="M340.68,110.14h-8.31l.39,1.38a15.25,15.25,0,0,0,1.18,3.36,54.06,54.06,0,0,0,2.61,5.71,61.81,61.81,0,0,0,2.55-5.71C339.6,113.61,340.69,111.55,340.68,110.14Z"/><path class="cls-2" d="M353.53,260.4a129.66,129.66,0,0,0,29.14-4.06,123.41,123.41,0,0,0,8.88-16.82l8.47,11a127.78,127.78,0,0,1-17.35,5.81,120.92,120.92,0,0,1-20.14,24.29,57.16,57.16,0,0,1,1.27,18.43,131.73,131.73,0,0,0,40.71-52c2.2-5.09-1.65-13.86-8.47-11a119.44,119.44,0,0,1-58.27,8.65A60.7,60.7,0,0,1,353.53,260.4Z"/><path class="cls-2" d="M391.56,239.51a123.41,123.41,0,0,1-8.88,16.82A127.78,127.78,0,0,0,400,250.53Z"/><path class="cls-2" d="M228.5,79a127.77,127.77,0,0,0-5.81,17.37,122.29,122.29,0,0,1,16.83-8.9Z"/><path class="cls-2" d="M169.75,213.93A114.58,114.58,0,0,1,172,164.38a116.93,116.93,0,0,1,50.72-68A127.77,127.77,0,0,1,228.5,79l11,8.47a122.29,122.29,0,0,0-16.83,8.9A132.45,132.45,0,0,0,231.07,185a81.83,81.83,0,0,1,16.06-1.22A118.54,118.54,0,0,1,243,83c2.86-6.84-5.89-10.69-11-8.47a131.17,131.17,0,0,0-77.56,140A71.06,71.06,0,0,1,169.75,213.93Z"/><path class="cls-2" d="M234.49,191.88q-1.81-3.38-3.42-6.85a82.66,82.66,0,0,0-50.67,30.49c1.67.38,3.33.81,5,1.32l-8.47,3.45q1.67-2.46,3.49-4.77a70.23,70.23,0,0,0-10.64-1.6q.66,3.8,1.56,7.54a62.16,62.16,0,0,1,12.07,2.62A73.7,73.7,0,0,1,234.49,191.88Z"/><path class="cls-2" d="M322.42,241.07c-.46-1.45-1-2.87-1.51-4.28-1.23-.35-2.47-.68-3.73-1Z"/><path class="cls-2" d="M185.37,216.85c-1.65-.51-3.31-.94-5-1.32q-1.82,2.31-3.49,4.77Z"/><path class="cls-2" d="M304.85,345.52h-7.24c0,3.78,2.36,7.56,7.24,7.5a59.9,59.9,0,0,0,58.79-52.34c.07-.55.11-1.09.16-1.63q-4.11,3.15-8.45,6A51.76,51.76,0,0,1,304.85,345.52Z"/><path class="cls-2" d="M314.08,239.78a117.75,117.75,0,0,0,23.7,4.93,58.76,58.76,0,0,0-16.87-7.93c.54,1.41,1,2.84,1.51,4.28l-5.24-5.24c1.26.27,2.5.6,3.73,1-10-26.34-33.17-46.79-61.3-51.74a83.11,83.11,0,0,0-12.49-1.23q2,3.9,4.41,7.66A73.75,73.75,0,0,1,314.08,239.78Z"/><path class="cls-2" d="M116.78,334.41A70.91,70.91,0,0,0,164.2,353c4.86.05,7.27-3.72,7.24-7.5H164.2a62.23,62.23,0,0,1-8.54-123.87q-.74-3.56-1.27-7.16a69.73,69.73,0,0,0-51.27,35.13C88,277.27,93.49,313,116.78,334.41Z"/><path class="cls-2" d="M362.53,280.62a59.67,59.67,0,0,0-9-20.22q-4.62.12-9.23-.1A51.52,51.52,0,0,1,356,286.2Q359.39,283.53,362.53,280.62Z"/><path class="cls-2" d="M362.53,280.62q-3.14,2.91-6.49,5.58a51.54,51.54,0,0,1-.68,18.83q4.34-2.82,8.45-6A57.16,57.16,0,0,0,362.53,280.62Z"/><path class="cls-2" d="M164.2,221.05a62.38,62.38,0,0,1,7.11.41q-.9-3.74-1.56-7.54a71.06,71.06,0,0,0-15.37.56q.54,3.6,1.27,7.16A62.66,62.66,0,0,1,164.2,221.05Z"/><path class="cls-2" d="M315.19,243.06A51.71,51.71,0,0,1,344.3,260.3q4.61.21,9.23.1a60.7,60.7,0,0,0-15.76-15.69,117.75,117.75,0,0,1-23.7-4.93C314.47,240.86,314.85,242,315.19,243.06Z"/><path class="cls-2" d="M231.07,185q1.61,3.47,3.42,6.85a74.24,74.24,0,0,1,10.28-.72c2.28,0,4.53.11,6.76.32q-2.35-3.76-4.41-7.66A81.83,81.83,0,0,0,231.07,185Z"/><path class="cls-2" d="M355.35,305q-4.67,3-9.6,5.68A45.18,45.18,0,0,1,304.85,338c-4.78.06-7.2,3.78-7.24,7.5h7.24A51.76,51.76,0,0,0,355.35,305Z"/><path class="cls-2" d="M304.42,236.23q4.76,2,9.66,3.55a73.75,73.75,0,0,0-62.55-48.3q2.68,4.28,5.76,8.35A67.11,67.11,0,0,1,304.42,236.23Z"/><path class="cls-2" d="M164.2,338c-24.5-.27-46.36-16.6-52.84-40.4A55.22,55.22,0,0,1,137,235.81a53.43,53.43,0,0,1,20.47-6.75q-1-3.67-1.77-7.4a62.23,62.23,0,0,0,8.54,123.87h7.24C171.41,341.8,169,338.08,164.2,338Z"/><path class="cls-2" d="M349.06,291.35q3.59-2.44,7-5.14a51.52,51.52,0,0,0-11.74-25.9q-6.15-.28-12.24-1.12A44.32,44.32,0,0,1,349.06,291.35Z"/><path class="cls-2" d="M181.39,231.31c3.34,1,6.63-.74,8.47-3.45a67.4,67.4,0,0,1,48.69-28.94q-2.14-3.46-4.05-7a73.7,73.7,0,0,0-51.11,32.2,62.16,62.16,0,0,0-12.07-2.62q1,4,2.22,8A60.47,60.47,0,0,1,181.39,231.31Z"/><path class="cls-2" d="M348.8,299.32a43,43,0,0,1-3,11.39q4.92-2.64,9.6-5.68A51.54,51.54,0,0,0,356,286.2q-3.39,2.7-7,5.14A43.89,43.89,0,0,1,348.8,299.32Z"/><path class="cls-2" d="M173.53,229.46q-1.25-4-2.22-8a61.46,61.46,0,0,0-15.65.19q.77,3.73,1.77,7.4A57,57,0,0,1,173.53,229.46Z"/><path class="cls-2" d="M257,199.77l.28.06q-3.07-4.07-5.76-8.35c-2.23-.2-4.48-.32-6.76-.32a74.24,74.24,0,0,0-10.28.72q1.92,3.58,4.05,7A63.34,63.34,0,0,1,257,199.77Z"/><path class="cls-2" d="M308,245.05a7.53,7.53,0,0,0,5.24,5.24,46.31,46.31,0,0,1,18.87,8.88q6.09.84,12.24,1.12a51.71,51.71,0,0,0-29.11-17.24c-.34-1.11-.72-2.2-1.11-3.28q-4.9-1.56-9.66-3.55A66.57,66.57,0,0,1,308,245.05Z"/><path class="cls-2" d="M217.93,381.14l-20.35,20.52-11.94,12a8.34,8.34,0,0,0-1.08,1.33l-.09.18c-2.62,5.32,1.29,10.24,5.67,11.22a6.81,6.81,0,0,0,6.11-2.13l.75-.76a8.64,8.64,0,0,0,.42-.76Z"/><path class="cls-2" d="M223.21,345.52H218.8l-3.52,7.15h12Z"/><path class="cls-2" d="M203.15,349l2-3.43h-4Z"/><path class="cls-2" d="M205.16,345.52l-2,3.43-2-3.43h-12a7.58,7.58,0,0,0,7.45,7.15h18.6l3.52-7.15Z"/><path class="cls-2" d="M197.58,401.67l20.35-20.52L233.79,349a8.39,8.39,0,0,0,.85-3.43H223.21l4.1,7.15h-12L184.56,415a8.34,8.34,0,0,1,1.08-1.33Z"/><path class="cls-2" d="M217.93,381.14l-20.51,41.65a8.64,8.64,0,0,1-.42.76l77.39-78H253.26Z"/><path class="cls-2" d="M190.14,426.44a6.16,6.16,0,0,0,6.86-2.88l-.75.76A6.81,6.81,0,0,1,190.14,426.44Z"/><path class="cls-2" d="M184.47,415.22l.09-.18c-3.1,4.78.79,10.6,5.58,11.4C185.76,425.46,181.85,420.54,184.47,415.22Z"/><path class="cls-2" d="M196.67,337.67h13.09L224.83,312a125.63,125.63,0,0,1-13-7.52L201,322.93,190.2,341.38a7.2,7.2,0,0,0-1,4.14h12Z"/><path class="cls-2" d="M227.31,337.67H209.76l-4.6,7.85H218.8l2-4.14,2.38,4.14h11.43A7.31,7.31,0,0,0,227.31,337.67Z"/><path class="cls-2" d="M233.18,297.71l-1.64.94.84.43Z"/><path class="cls-2" d="M260.39,327l1.89-2.81q-2-.33-3.92-.72Z"/><path class="cls-2" d="M196.67,337.67l4.51,7.85h4l4.6-7.85Z"/><path class="cls-2" d="M273.07,325.55,268,330.71h18L284,326Q278.54,326,273.07,325.55Z"/><path class="cls-2" d="M273.54,286.42c-15.21,0-30.52-.53-45.72,0-4.14.14-6.52,2.28-8.42,5.09a111.11,111.11,0,0,0,12.15,7.14l1.64-.94-.8,1.36q2.5,1.23,5.08,2.35h22l7.56-11.29,6.48,11.29h-14l-4.07,6.07a118.38,118.38,0,0,0,16.11,2.86L280,297.71C283.24,292.89,279,286.42,273.54,286.42Z"/><path class="cls-2" d="M262.27,324.18,260.39,327l-2-3.54q-5.83-1.16-11.54-2.84c-1.9,4.63,2.11,10.09,7.1,10.09h14l5.11-5.16Q267.65,325.08,262.27,324.18Z"/><path class="cls-2" d="M218.8,345.52h4.41l-2.38-4.14Z"/><path class="cls-2" d="M267.06,290.14l-7.56,11.29h14Z"/><path class="cls-2" d="M291.26,328.51a7.17,7.17,0,0,0,1.7-2.74q-4.47.29-8.94.27l1.93,4.67H268l-14.69,14.82h21.13l4.94-5Z"/><path class="cls-2" d="M226.7,301.42l4.84-2.78a111.11,111.11,0,0,1-12.15-7.14c-1.25,1.84-2.29,4-3.49,6l-4.05,6.92a125.63,125.63,0,0,0,13,7.52L231,301.42Z"/><path class="cls-2" d="M258.36,323.45q2,.39,3.92.72l5.68-8.47h-14Z"/><path class="cls-2" d="M231.54,298.65l-4.84,2.78H231l1.38-2.35Z"/><path class="cls-2" d="M273.07,325.55q5.46.47,11,.49l-3.37-8.14Z"/><path class="cls-2" d="M231,301.42h6.45q-2.58-1.12-5.08-2.35Z"/><path class="cls-2" d="M286,315.71h-18l-5.68,8.47q5.37.91,10.8,1.37l7.58-7.65L284,326q4.47,0,8.94-.27C294.52,321.24,291.31,315.71,286,315.71Z"/><path class="cls-2" d="M247.43,319.42a6.66,6.66,0,0,0-.62,1.19q5.71,1.68,11.54,2.84l-4.45-7.75h14l3.59-5.36a118.38,118.38,0,0,1-16.11-2.86Z"/></svg>