<?xml version="1.0" ?><svg data-name="图层 1" id="图层_1" viewBox="0 0 500 500" xmlns="http://www.w3.org/2000/svg"><defs><style>.cls-1{fill:none;}.cls-2{fill:#231815;}</style></defs><title/><path class="cls-1" d="M336.56,130.45c-.62,1.22-1.28,2.42-2,3.58a53.72,53.72,0,0,1-14.6,15.19,44.46,44.46,0,0,1-5.27,3.16,53.31,53.31,0,0,1,11.13,7.79,50.35,50.35,0,0,1,10.71,14l.59-1.07a51.17,51.17,0,0,1,13.39-15.6,51.88,51.88,0,0,1,8-5.19A52.51,52.51,0,0,1,336.56,130.45Z"/><path class="cls-1" d="M231.07,194.91a132.45,132.45,0,0,1-8.38-88.66,116.93,116.93,0,0,0-50.72,68,114.58,114.58,0,0,0-2.22,49.54,70.15,70.15,0,0,1,10.64,1.6A82.66,82.66,0,0,1,231.07,194.91Z"/><path class="cls-1" d="M382.67,266.21a129.68,129.68,0,0,1-29.15,4.06,59.66,59.66,0,0,1,9,20.22A120.92,120.92,0,0,0,382.67,266.21Z"/><path class="cls-2" d="M297.92,161.73c3.45,1.9,7.43,2.51,10.91,4.5A37.85,37.85,0,0,1,319,174.76a36.15,36.15,0,0,1,5.86,9.89c1.78,4.51,2.42,8.91,7.44,11A10.65,10.65,0,0,0,344.51,193c2.78-3.21,3.23-7.95,5.2-11.66,4.73-8.91,12.35-14.94,21.79-18.22,4.62-1.61,8.37-4,9.08-9.27a10.71,10.71,0,0,0-7.7-11.75c9.28,2.66,5.31,17.13-4,14.46a54.2,54.2,0,0,1-10.4-4.2,51.88,51.88,0,0,0-8,5.19,51.17,51.17,0,0,0-13.39,15.6l-.59,1.07c.46.9.91,1.8,1.31,2.72a58.81,58.81,0,0,1,2.25,5.77c1,3.07,1.32,2.06-3.54,2.06-5.9,0-4.1,1.15-3.76-1.38.41-3,2.19-6.37,3.73-9.17a50.35,50.35,0,0,0-10.71-14,53.31,53.31,0,0,0-11.13-7.79c-1.66.85-3.36,1.62-5.1,2.32-1.3.52-3.33,1.67-4.7,1.63q-2.68,1.13-.69-4v-4.15a10.83,10.83,0,0,1,2.74.83,54.23,54.23,0,0,1,7.76,3.33,44.46,44.46,0,0,0,5.27-3.16A53.72,53.72,0,0,0,334.54,134c.74-1.16,1.4-2.36,2-3.58a53.92,53.92,0,0,1-2.61-5.71,15.26,15.26,0,0,1-1.18-3.36l-.39-1.38h8.31c0,1.41-1.08,3.47-1.57,4.73a61.86,61.86,0,0,1-2.55,5.71,52.51,52.51,0,0,0,21.93,21.87c.63-.33,1.27-.66,1.92-1,1-.48,2.11-.92,3.18-1.35-.19-4.58,3.52-9.51,9.29-8a37.08,37.08,0,0,1-21-15c-4.32-6.59-5-18.48-14.87-18.87-10.58-.41-11.3,12.07-15.76,18.87a37.24,37.24,0,0,1-19.66,14.61c-4.12,1.38-7.58,3.31-8.83,7.84A10.73,10.73,0,0,0,297.92,161.73Z"/><path class="cls-2" d="M367.51,148.62a10.41,10.41,0,0,0-2,.68c-.64.23-1.27.48-1.9.73a6.79,6.79,0,0,0,5.3,6.51C365.56,155.63,373.1,147.95,367.51,148.62Z"/><path class="cls-2" d="M363.59,150c-1.07.42-2.13.87-3.18,1.35-.66.3-1.29.63-1.92,1a54.2,54.2,0,0,0,10.4,4.2A6.79,6.79,0,0,1,363.59,150Z"/><path class="cls-2" d="M363.59,150c.63-.25,1.26-.5,1.9-.73a10.41,10.41,0,0,1,2-.68c5.59-.67-2,7,1.38,7.91,9.3,2.66,13.27-11.81,4-14.46C367.12,140.51,363.4,145.44,363.59,150Z"/><path class="cls-2" d="M340.68,120h-8.31l.39,1.38a15.26,15.26,0,0,0,1.18,3.36,53.92,53.92,0,0,0,2.61,5.71,61.86,61.86,0,0,0,2.55-5.71C339.6,123.49,340.69,121.43,340.68,120Z"/><path class="cls-2" d="M304.17,148.22v4.15q-2,5.08.69,4c1.37,0,3.4-1.11,4.7-1.63,1.74-.7,3.44-1.46,5.1-2.32a54.23,54.23,0,0,0-7.76-3.33A10.83,10.83,0,0,0,304.17,148.22Z"/><path class="cls-2" d="M336.53,184.74c4.86,0,4.53,1,3.54-2.06a58.81,58.81,0,0,0-2.25-5.77c-.41-.92-.85-1.82-1.31-2.72-1.54,2.8-3.32,6.16-3.73,9.17C332.43,185.89,330.63,184.74,336.53,184.74Z"/><path class="cls-2" d="M169.75,223.8A114.58,114.58,0,0,1,172,174.26a116.93,116.93,0,0,1,50.72-68,127.93,127.93,0,0,1,5.81-17.37l11,8.47a122.38,122.38,0,0,0-16.83,8.9,132.45,132.45,0,0,0,8.38,88.66,81.83,81.83,0,0,1,16.06-1.22A118.54,118.54,0,0,1,243,92.86c2.86-6.84-5.89-10.69-11-8.47a131.17,131.17,0,0,0-77.56,140A71,71,0,0,1,169.75,223.8Z"/><path class="cls-2" d="M396,245.94a119.44,119.44,0,0,1-58.27,8.65,60.69,60.69,0,0,1,15.76,15.69,129.68,129.68,0,0,0,29.15-4.06,123.41,123.41,0,0,0,8.88-16.82l8.47,11a127.78,127.78,0,0,1-17.35,5.81,120.92,120.92,0,0,1-20.14,24.29,57.16,57.16,0,0,1,1.27,18.43,131.73,131.73,0,0,0,40.71-52C406.71,251.86,402.86,243.09,396,245.94Z"/><path class="cls-2" d="M228.5,88.87a127.93,127.93,0,0,0-5.81,17.37,122.38,122.38,0,0,1,16.83-8.9Z"/><path class="cls-2" d="M391.56,249.38a123.41,123.41,0,0,1-8.88,16.82A127.78,127.78,0,0,0,400,260.4Z"/><path class="cls-2" d="M304.85,355.4h-7.24c0,3.78,2.36,7.56,7.24,7.5a59.9,59.9,0,0,0,58.79-52.34c.07-.54.11-1.09.16-1.63q-4.11,3.15-8.45,6A51.76,51.76,0,0,1,304.85,355.4Z"/><path class="cls-2" d="M314.08,249.65a117.75,117.75,0,0,0,23.7,4.93,58.77,58.77,0,0,0-16.87-7.93c.54,1.41,1,2.84,1.51,4.28l-5.24-5.24c1.26.27,2.5.6,3.73,1-10-26.34-33.17-46.79-61.3-51.74a83.11,83.11,0,0,0-12.49-1.23q2,3.9,4.41,7.66A73.75,73.75,0,0,1,314.08,249.65Z"/><path class="cls-2" d="M234.49,201.75q-1.81-3.38-3.42-6.85A82.66,82.66,0,0,0,180.4,225.4c1.67.38,3.33.81,5,1.32l-8.47,3.45q1.67-2.46,3.49-4.77a70.15,70.15,0,0,0-10.64-1.6q.66,3.8,1.56,7.54A62.12,62.12,0,0,1,183.38,234,73.7,73.7,0,0,1,234.49,201.75Z"/><path class="cls-2" d="M185.37,226.72c-1.65-.51-3.31-.94-5-1.32q-1.82,2.31-3.49,4.77Z"/><path class="cls-2" d="M102,293.16a62.23,62.23,0,0,1,53.69-61.64q-.74-3.56-1.27-7.16a69.73,69.73,0,0,0-51.27,35.13c-15.16,27.65-9.63,63.37,13.66,84.79A70.91,70.91,0,0,0,164.2,362.9c4.86.05,7.27-3.72,7.24-7.5H164.2A62.23,62.23,0,0,1,102,293.16Z"/><path class="cls-2" d="M344.3,270.17A51.52,51.52,0,0,1,356,296.08q3.35-2.67,6.49-5.58a59.66,59.66,0,0,0-9-20.22Q348.91,270.39,344.3,270.17Z"/><path class="cls-2" d="M322.42,250.94c-.46-1.45-1-2.87-1.51-4.28-1.23-.35-2.47-.68-3.73-1Z"/><path class="cls-2" d="M315.19,252.93a51.7,51.7,0,0,1,29.11,17.24q4.61.21,9.23.1a60.69,60.69,0,0,0-15.76-15.69,117.75,117.75,0,0,1-23.7-4.93C314.47,250.73,314.85,251.83,315.19,252.93Z"/><path class="cls-2" d="M231.07,194.91q1.61,3.47,3.42,6.85a74.24,74.24,0,0,1,10.28-.72c2.28,0,4.53.11,6.76.32q-2.35-3.76-4.41-7.66A81.83,81.83,0,0,0,231.07,194.91Z"/><path class="cls-2" d="M164.2,230.93a62.4,62.4,0,0,1,7.11.41q-.9-3.74-1.56-7.54a71,71,0,0,0-15.37.56q.54,3.6,1.27,7.16A62.67,62.67,0,0,1,164.2,230.93Z"/><path class="cls-2" d="M362.53,290.49q-3.15,2.91-6.49,5.58a51.55,51.55,0,0,1-.68,18.83q4.34-2.82,8.45-6A57.16,57.16,0,0,0,362.53,290.49Z"/><path class="cls-2" d="M304.42,246.1q4.76,2,9.66,3.55a73.75,73.75,0,0,0-62.55-48.3q2.68,4.28,5.76,8.35A67.11,67.11,0,0,1,304.42,246.1Z"/><path class="cls-2" d="M332.06,269a44.32,44.32,0,0,1,17,32.17q3.59-2.44,7-5.14a51.52,51.52,0,0,0-11.74-25.9Q338.16,269.9,332.06,269Z"/><path class="cls-2" d="M181.39,241.19c3.34,1,6.63-.74,8.47-3.45a67.4,67.4,0,0,1,48.69-28.94q-2.14-3.46-4.05-7A73.7,73.7,0,0,0,183.38,234a62.12,62.12,0,0,0-12.07-2.62q1,4,2.22,8A60.47,60.47,0,0,1,181.39,241.19Z"/><path class="cls-2" d="M164.2,347.9c-24.5-.27-46.36-16.6-52.84-40.4A55.22,55.22,0,0,1,137,245.68a53.43,53.43,0,0,1,20.47-6.75q-1-3.67-1.77-7.4A62.23,62.23,0,0,0,164.2,355.4h7.24C171.41,351.67,169,347.95,164.2,347.9Z"/><path class="cls-2" d="M355.35,314.91q-4.67,3-9.6,5.68a45.18,45.18,0,0,1-40.91,27.31c-4.78.06-7.2,3.78-7.24,7.5h7.24A51.76,51.76,0,0,0,355.35,314.91Z"/><path class="cls-2" d="M348.8,309.19a43,43,0,0,1-3,11.39q4.92-2.64,9.6-5.68a51.55,51.55,0,0,0,.68-18.83q-3.39,2.7-7,5.14A43.89,43.89,0,0,1,348.8,309.19Z"/><path class="cls-2" d="M308,254.93a7.54,7.54,0,0,0,5.24,5.24A46.3,46.3,0,0,1,332.06,269q6.09.84,12.24,1.12a51.7,51.7,0,0,0-29.11-17.24c-.34-1.11-.72-2.2-1.11-3.28q-4.9-1.56-9.66-3.55A66.5,66.5,0,0,1,308,254.93Z"/><path class="cls-2" d="M173.53,239.34q-1.25-4-2.22-8a61.46,61.46,0,0,0-15.65.19q.77,3.73,1.77,7.4A57,57,0,0,1,173.53,239.34Z"/><path class="cls-2" d="M257,209.64l.28.06q-3.07-4.07-5.76-8.35c-2.23-.2-4.48-.32-6.76-.32a74.24,74.24,0,0,0-10.28.72q1.92,3.58,4.05,7A63.33,63.33,0,0,1,257,209.64Z"/><path class="cls-2" d="M234.85,399.28v0l-7.5,4.3v5.55c0,9.65,15,9.67,15,0v-5.55l-7.5-4.3Z"/><path class="cls-2" d="M227.35,383.8v2.39c.66-.41,1.33-.83,2-1.23C228.7,384.6,228,384.21,227.35,383.8Z"/><path class="cls-2" d="M242.35,386.2v-2.31c-.64.4-1.3.77-2,1.12C241.07,385.39,241.72,385.8,242.35,386.2Z"/><path class="cls-2" d="M227.35,324.37v4.25a27.46,27.46,0,0,1,3.9-2.08A31.38,31.38,0,0,1,227.35,324.37Z"/><path class="cls-2" d="M234.85,301.66v8.47l1.13.51,6.37-3.65v-5.32c0-9.65-15-9.67-15,0v4.63q3.66,2,7.5,3.84Z"/><path class="cls-2" d="M234.85,310.13q-3.84-1.78-7.5-3.84V307l7.5,4.3Z"/><path class="cls-2" d="M236,310.64l-1.13-.51v1.16h0Z"/><path class="cls-2" d="M242.35,328.47v-4.1a31.81,31.81,0,0,1-3.79,2.13A26.2,26.2,0,0,1,242.35,328.47Z"/><path class="cls-2" d="M196.75,377.28l-8.34,4.81,8.34-4.81-7.48-4.34-4.64,2.68c-8.36,4.83-.81,17.79,7.57,13l4.58-2.64q0-4.32,0-8.65Z"/><path class="cls-2" d="M207.53,362.4l-3.2,1.85c1.07.57,2.18,1.17,3.2,1.86Z"/><path class="cls-2" d="M211.83,377.24l2.36-1.36-2.31-1.34C211.89,375.45,211.87,376.36,211.83,377.24Z"/><path class="cls-2" d="M257.94,337.8a31.54,31.54,0,0,1-.06-4.47L254,335.55Z"/><path class="cls-2" d="M262.38,344.69v3.36l3-1.74c-1-.53-2-1.1-3-1.73C262.37,344.62,262.38,344.66,262.38,344.69Z"/><path class="cls-2" d="M280.77,320.85l1.56,0A6.53,6.53,0,0,0,280.77,320.85Z"/><path class="cls-2" d="M280.43,337.63l3-1.72q-3.14,0-6.27-.2Z"/><path class="cls-2" d="M282.33,320.88l-1.56,0a7.66,7.66,0,0,0-3.07,1l-4.77,2.76,0,8.65h0l8.53-4.93L273,333.29l4.18,2.43q3.13.17,6.27.2l1.87-1.08C292,330.93,288.39,321.72,282.33,320.88Z"/><path class="cls-2" d="M265.38,364.24l-3-1.73v3.43C263.35,365.32,264.39,364.76,265.38,364.24Z"/><path class="cls-2" d="M257.84,374.65l-2.23,1.28,2.27,1.31C257.85,376.39,257.83,375.52,257.84,374.65Z"/><path class="cls-2" d="M281.29,382.09,273,377.28h0l0,8.65,4.58,2.64c8.38,4.84,15.94-8.12,7.57-13l-4.64-2.68L273,377.28Z"/><path class="cls-2" d="M211.74,337.93l4-2.33-3.94-2.28A30.33,30.33,0,0,1,211.74,337.93Z"/><path class="cls-2" d="M207.55,344.48c-1,.68-2.15,1.28-3.21,1.84l3.2,1.85v-3.48C207.53,344.62,207.54,344.55,207.55,344.48Z"/><path class="cls-2" d="M188.22,328.36l8.53,4.93h0q0-4.32,0-8.65L192,321.88c-8.38-4.83-15.94,8.12-7.57,13l4.84,2.8,7.48-4.34Z"/><path class="cls-2" d="M226.49,322.66a125.28,125.28,0,0,1-12.39-6.9,7.43,7.43,0,0,0,2.6,2.41l8.47,4.86c.68.39,1.42.86,2.18,1.34v-1.31Z"/><path class="cls-2" d="M242.48,313.33a118.65,118.65,0,0,0,12,3.78c5.91-5.39-1.18-16.4-9-11.9L242.35,307v6.29Z"/><path class="cls-2" d="M227.35,323.06V307l-3.09-1.77c-7.22-4.14-13.83,4.89-10.17,10.55a125.28,125.28,0,0,0,12.39,6.9Z"/><path class="cls-2" d="M242.35,313.28v11.09c.76-.48,1.5-.95,2.18-1.34l8.47-4.86a8.2,8.2,0,0,0,1.45-1.05,118.65,118.65,0,0,1-12-3.78Z"/><path class="cls-2" d="M242.35,313.28V307L236,310.64C238.07,311.58,240.19,312.46,242.35,313.28Z"/><path class="cls-2" d="M233.6,325.83q-3.15-1.3-6.24-2.77v1.31a31.38,31.38,0,0,0,3.9,2.18A11.83,11.83,0,0,1,233.6,325.83Z"/><path class="cls-2" d="M231.07,313.46h3.79v-2.17Z"/><path class="cls-2" d="M234.85,311.29h0v2.17h3.79Z"/><path class="cls-2" d="M238.57,326.51a31.81,31.81,0,0,0,3.79-2.13V313.28c-2.16-.82-4.28-1.7-6.37-2.64l-1.13.65,3.79,2.17h-3.79V325.7h.1A9.86,9.86,0,0,1,238.57,326.51Z"/><path class="cls-2" d="M234.85,313.46h-3.79l3.79-2.17h0l-7.5-4.3v16.08q3.09,1.47,6.24,2.77a7.55,7.55,0,0,1,1.26-.13Z"/><path class="cls-2" d="M211.83,333.33c0-.88-.07-1.73-.07-2.52l0-9.77c0-9.65-15-9.67-15,0q0,1.8,0,3.6l7,4Z"/><path class="cls-2" d="M186.13,339.46c-8.34,4.85-.8,17.82,7.57,13l8.45-4.91c.66-.38,1.4-.77,2.18-1.18l-15.06-8.69Z"/><path class="cls-2" d="M196.74,337.61l1.87-3.25-1.85-1.07Q196.75,335.45,196.74,337.61Z"/><polygon class="cls-2" points="196.75 333.29 196.76 333.29 196.76 333.29 196.75 333.29"/><path class="cls-2" d="M200.46,331.13l-1.85,3.22,10.34,6a7.34,7.34,0,0,1,2.3-2.11l.49-.28a30.33,30.33,0,0,0,.09-4.6l-8.08-4.66-7-4q0,4.32,0,8.65Z"/><path class="cls-2" d="M209,340.33l-10.34-6-1.87,3.25q0-2.16,0-4.32h0l-7.48,4.34,15.06,8.69c1.06-.56,2.18-1.16,3.21-1.84A7.57,7.57,0,0,1,209,340.33Z"/><path class="cls-2" d="M196.76,333.29h0l1.85,1.07,1.85-3.22Z"/><path class="cls-2" d="M204.33,364.25c-.76-.4-1.51-.79-2.18-1.18l-8.45-4.91c-8.36-4.86-15.92,8.1-7.57,13l3.14,1.83,7.1-4.1Z"/><path class="cls-2" d="M196.79,389.52c0,9.65,15,9.67,15,0l0-9.77c0-.77,0-1.63.07-2.52l-15.05,8.69Q196.78,387.73,196.79,389.52Z"/><path class="cls-2" d="M196.76,377.28l1.85-1.07L196.74,373Q196.75,375.12,196.76,377.28Z"/><path class="cls-2" d="M196.76,377.28l3.7,2.15-1.85-3.22-1.85,1.07Z"/><polygon class="cls-2" points="196.75 377.28 196.76 377.28 196.76 377.28 196.75 377.28"/><path class="cls-2" d="M211.88,374.54l-.63-.37a7.45,7.45,0,0,1-3.08-3.48l-9.56,5.52,1.85,3.22-3.7-2.15q0,4.32,0,8.65l15.05-8.69C211.87,376.36,211.89,375.45,211.88,374.54Z"/><path class="cls-2" d="M196.76,377.28q0-2.16,0-4.32l1.87,3.25,9.56-5.52a7.48,7.48,0,0,1-.64-3v-1.6c-1-.68-2.13-1.29-3.2-1.86l-8,4.59-7.1,4.1,7.48,4.34Z"/><path class="cls-2" d="M227.35,386.19c-.76.48-1.5.95-2.18,1.34l-8.47,4.86c-8.37,4.8-.82,17.77,7.57,13l3.09-1.77V386.19Z"/><path class="cls-2" d="M245.44,405.35c8.39,4.81,16-8.14,7.57-13l-8.47-4.86c-.68-.39-1.42-.86-2.18-1.34v17.38Z"/><path class="cls-2" d="M234.85,399.28l-3.79-2.17h3.79V386.69a12.62,12.62,0,0,1-5.47-1.73c-.69.39-1.37.81-2,1.23v17.39l7.5-4.3Z"/><path class="cls-2" d="M235,386.7h-.1V397.1h3.79l-3.79,2.17,7.5,4.3V386.2c-.63-.4-1.29-.8-2-1.18A12.17,12.17,0,0,1,235,386.7Z"/><path class="cls-2" d="M234.85,399.28V397.1h-3.79Z"/><path class="cls-2" d="M234.85,399.28l3.79-2.17h-3.79v2.17Z"/><path class="cls-2" d="M283.58,371.11c8.34-4.85.8-17.82-7.57-13l-8.45,4.91c-.66.38-1.4.77-2.18,1.18l15.06,8.69Z"/><path class="cls-2" d="M257.88,377.24c0,.88.07,1.73.07,2.52l0,9.77c0,9.65,15,9.67,15,0q0-1.8,0-3.6l-7.17-4.14Z"/><path class="cls-2" d="M262.38,367.7A8,8,0,0,1,262,370l0,.1,0,.12c-.06.19-.13.38-.21.56l9.34,5.39L273,373v4.32h0l7.48-4.34-15.06-8.69c-1,.52-2,1.08-3,1.7Z"/><path class="cls-2" d="M269.25,379.43l1.85-3.22-9.34-5.39a7.13,7.13,0,0,1-3.1,3.35l-.82.47c0,.87,0,1.74,0,2.59l7.88,4.55,7.17,4.14,0-8.65Z"/><polygon class="cls-2" points="272.95 377.28 272.95 377.28 272.95 377.28 272.95 377.28"/><path class="cls-2" d="M273,377.28h0l-1.85-1.07-1.85,3.22Z"/><path class="cls-2" d="M273,373l-1.87,3.25,1.85,1.07Z"/><path class="cls-2" d="M265.38,346.32c.76.4,1.51.79,2.18,1.18l8.45,4.91c8.36,4.86,15.92-8.1,7.57-13l-3.14-1.83-6.9,4Z"/><path class="cls-2" d="M258,333.26l-.12,0v.1Z"/><path class="cls-2" d="M258.48,318.08a118.47,118.47,0,0,0,14.41,2.28C272.26,312.46,261.1,311.69,258.48,318.08Z"/><path class="cls-2" d="M272.89,320.36a118.47,118.47,0,0,1-14.41-2.28,7.67,7.67,0,0,0-.56,3l0,9.77c0,.74,0,1.57-.07,2.42l.12,0,14.93-8.62q0-1.8,0-3.6C272.92,320.81,272.9,320.59,272.89,320.36Z"/><path class="cls-2" d="M273,335.41v2.2l-1.33-2.31-1.83-.2-8.91,5.14a7.57,7.57,0,0,1,1.47,4.34c1,.63,2,1.2,3,1.73l8.15-4.7,6.9-4-3.3-1.92Q275,335.6,273,335.41Z"/><path class="cls-2" d="M257.88,333.33a31.54,31.54,0,0,0,.06,4.47l.73.42a7.34,7.34,0,0,1,2.24,2l8.91-5.14q-5.94-.66-11.81-1.84Z"/><path class="cls-2" d="M273,337.61v-2.2l-1.32-.11Z"/><path class="cls-2" d="M269.81,335.1l1.83.2-.54-.94Z"/><path class="cls-2" d="M269.81,335.1l1.29-.75-1.85-3.22,3.7,2.15,0-8.65L258,333.26Q263.86,334.44,269.81,335.1Z"/><path class="cls-2" d="M271.1,334.36l.54.94,1.32.11v-2.13Z"/><path class="cls-2" d="M273,335.41q2.08.18,4.17.3L273,333.29h0Z"/><path class="cls-2" d="M271.1,334.36l1.85-1.07h0l-3.7-2.15Z"/><polygon class="cls-2" points="272.95 333.29 272.95 333.29 272.95 333.29 272.95 333.29"/><path class="cls-2" d="M215,355.4h-7.5v7l7.5-4.33Z"/><path class="cls-2" d="M221.69,371.54l-7.5,4.33,7.87,4.54c1.53.88,3.36,2.19,5.3,3.38v-9Z"/><path class="cls-2" d="M254.88,358.18l7.5,4.33V355.4h-7.5Z"/><path class="cls-2" d="M253.77,374.86l-5.16-3A7.33,7.33,0,0,0,253.77,374.86Z"/><path class="cls-2" d="M248.61,371.89l-.49-.29-5.76,3.33v9c1.85-1.14,3.6-2.38,5.07-3.23l8.19-4.73-1.85-1.07A7.33,7.33,0,0,1,248.61,371.89Z"/><path class="cls-2" d="M254.88,352.39v3h7.5v-7.34Z"/><path class="cls-2" d="M215,352.5l-7.5-4.33v7.23H215Z"/><path class="cls-2" d="M227.35,337.58v-9c-1.77,1.1-3.45,2.28-4.87,3.1l-6.71,3.88,7.5,4.33Z"/><path class="cls-2" d="M244.33,329.73l-2-.64v8.37l4.18,2.41,7.5-4.33L247.85,332C246.8,331.37,245.6,330.56,244.33,329.73Z"/><path class="cls-2" d="M242.35,328.47v.62l2,.64C243.69,329.31,243,328.88,242.35,328.47Z"/><path class="cls-2" d="M235,379.2l-.1-.06v4A11.77,11.77,0,0,1,240.4,385c.66-.35,1.31-.73,2-1.12v-9Z"/><path class="cls-2" d="M234.85,383.13v-4l-7.5-4.33v9c.67.41,1.34.8,2,1.17A11.57,11.57,0,0,1,234.85,383.13Z"/><path class="cls-2" d="M234.85,333.25v-5.81a9.06,9.06,0,0,1-3.6-.89,27.46,27.46,0,0,0-3.9,2.08v9Z"/><path class="cls-2" d="M242.35,337.46v-8.37q-2.76-.92-5.48-2a7.45,7.45,0,0,1-2,.3v5.81l.1-.06Z"/><path class="cls-2" d="M238.57,326.51a12.17,12.17,0,0,1-1.7.63q2.72,1,5.48,2v-.62A26.2,26.2,0,0,0,238.57,326.51Z"/><path class="cls-2" d="M210.72,369.17l0,0,4.29-2.48v-8.66l-7.5,4.33v3.71A10.18,10.18,0,0,1,210.72,369.17Z"/><path class="cls-2" d="M215,367.7v-1l-4.29,2.48a11,11,0,0,1,1.14,5.33l2.31,1.34,7.5-4.33Z"/><path class="cls-2" d="M262.37,344.59A10.45,10.45,0,0,1,259,341.4l0,0L254,344.21l.84.48v7.69l7.5-4.33v-3.36S262.37,344.62,262.37,344.59Z"/><path class="cls-2" d="M254,335.55l-7.5,4.33,7.5,4.33,4.94-2.85a8.8,8.8,0,0,1-1-3.56Z"/><path class="cls-2" d="M254.88,366.84v.85l-6.54,3.77c.08.14.18.28.27.41l5.16,3a8.55,8.55,0,0,0,4.07-.46,11.26,11.26,0,0,1,1.13-5.2Z"/><path class="cls-2" d="M257.84,374.41a8.55,8.55,0,0,1-4.07.46l1.85,1.07,2.23-1.28C257.84,374.57,257.84,374.49,257.84,374.41Z"/><path class="cls-2" d="M254.88,360.16c3.47,0,6.29,2.8,7.15,6l.35-.23v-3.43l-7.5-4.33Z"/><path class="cls-2" d="M248.11,371.6l.49.29c-.09-.13-.19-.27-.27-.41Z"/><path class="cls-2" d="M259,369.21l0,0a9.45,9.45,0,0,1,3-3c-.86-3.21-3.68-6-7.15-6v6.68Z"/><path class="cls-2" d="M215.77,344.27l-5-2.91,0,0a9.64,9.64,0,0,1-3.17,3.09c0,.07,0,.14,0,.21v3.48l7.5,4.33v-7.81Z"/><path class="cls-2" d="M210.74,341.36l5,2.91,7.5-4.33-7.5-4.33-4,2.33A9.23,9.23,0,0,1,210.74,341.36Z"/><path class="cls-2" d="M234.85,326.35v1.09a7.45,7.45,0,0,0,2-.3Z"/><path class="cls-2" d="M233.6,325.83a11.83,11.83,0,0,0-2.34.72,9.06,9.06,0,0,0,3.6.89v-1.09Z"/><path class="cls-2" d="M234.85,325.7a7.55,7.55,0,0,0-1.26.13l1.26.52Z"/><path class="cls-2" d="M235,325.69h-.1v.65l2,.79a12.17,12.17,0,0,0,1.7-.63A9.86,9.86,0,0,0,235,325.69Z"/><path class="cls-2" d="M207.55,344.48a9.64,9.64,0,0,0,3.17-3.09l0,0-1.79-1A7.57,7.57,0,0,0,207.55,344.48Z"/><path class="cls-2" d="M211.25,338.22a7.34,7.34,0,0,0-2.3,2.11l1.79,1a9.23,9.23,0,0,0,1-3.43Z"/><path class="cls-2" d="M211.25,374.17l.63.37a11,11,0,0,0-1.14-5.33l-2.57,1.48A7.45,7.45,0,0,0,211.25,374.17Z"/><path class="cls-2" d="M207.53,366.1v1.6a7.48,7.48,0,0,0,.64,3l2.57-1.48,0,0A10.18,10.18,0,0,0,207.53,366.1Z"/><path class="cls-2" d="M235,386.7A12.17,12.17,0,0,0,240.4,385a11.77,11.77,0,0,0-5.54-1.88v3.56Z"/><path class="cls-2" d="M234.85,386.69v-3.56a11.57,11.57,0,0,0-5.47,1.84A12.62,12.62,0,0,0,234.85,386.69Z"/><path class="cls-2" d="M262,370.13l0,.12Z"/><path class="cls-2" d="M261.75,370.81l-2.78-1.6a11.26,11.26,0,0,0-1.13,5.2A6.77,6.77,0,0,0,261.75,370.81Z"/><path class="cls-2" d="M259,369.17l0,0,2.78,1.6c.08-.18.15-.37.22-.56l0-.12,0-.1a7.26,7.26,0,0,0,0-3.85A9.45,9.45,0,0,0,259,369.17Z"/><path class="cls-2" d="M261.76,370.82c.08-.19.15-.37.21-.56-.07.19-.14.38-.22.56Z"/><path class="cls-2" d="M262,370a8,8,0,0,0,.34-2.33v-1.75l-.35.23A7.26,7.26,0,0,1,262,370Z"/><path class="cls-2" d="M262,370l0,.1Z"/><path class="cls-2" d="M257.84,374.41c0,.08,0,.16,0,.24l.82-.47a7.13,7.13,0,0,0,3.1-3.35h0A6.77,6.77,0,0,1,257.84,374.41Z"/><path class="cls-2" d="M258.66,338.22l-.73-.42a8.8,8.8,0,0,0,1,3.56l1.93-1.11A7.34,7.34,0,0,0,258.66,338.22Z"/><path class="cls-2" d="M259,341.4a10.45,10.45,0,0,0,3.38,3.19,7.57,7.57,0,0,0-1.47-4.34L259,341.36Z"/><path class="cls-2" d="M215,355.4v2.67l4.62-2.67Z"/><path class="cls-2" d="M254.88,358.18V355.4h-4.82Z"/><path class="cls-2" d="M221.69,371.54l5.66,3.27v-6.54Z"/><path class="cls-2" d="M242.35,374.93l5.76-3.33-5.76-3.33Z"/><path class="cls-2" d="M227.35,337.58l-4.08,2.36,4.08,2.36Z"/><path class="cls-2" d="M219.85,355.28,215,352.5v2.9h4.62Z"/><path class="cls-2" d="M242.35,342.29l4.18-2.41-4.18-2.41Z"/><path class="cls-2" d="M250.05,355.4h4.82v-3l-5,2.9Z"/><path class="cls-2" d="M240.61,367.27,235,370.54l3.79,2.19h-3.88v6.42l.1.06,7.4-4.27v-6.65Z"/><path class="cls-2" d="M234.85,370.59l.1-.06-.1-.06Z"/><path class="cls-2" d="M231.17,372.72l3.69-2.13v-.11l-5.66-3.27-1.84,1.06v6.54l7.5,4.33v-6.42Z"/><path class="cls-2" d="M234.85,372.72h3.88L235,370.54l-.1.06Z"/><path class="cls-2" d="M231.17,372.72h3.69v-2.13Z"/><path class="cls-2" d="M238.74,339.67h-3.88v2.13l.1.06Z"/><path class="cls-2" d="M230.77,344.27l4.08-2.36v-.11l-3.69-2.13h3.69v-6.42l-7.5,4.33v4.71Z"/><path class="cls-2" d="M238.74,339.67,235,341.85l4.08,2.36,3.32-1.92v-4.83l-7.4-4.27-.1.06v6.42Z"/><path class="cls-2" d="M231.17,339.67l3.69,2.13v-2.13Z"/><path class="cls-2" d="M234.85,341.8v.11l.1-.06Z"/><path class="cls-2" d="M220.25,363.72l2.28,4v-4.33l-.84-.48Z"/><path class="cls-2" d="M221.69,362.88l.84.48v-1Z"/><path class="cls-2" d="M218.82,361.22l2.88,1.66.84-.48v-5.57L220,355.4h-.39L215,358.07v8.66l5.22-3Z"/><path class="cls-2" d="M227.35,366.15l-4.82-2.78v4.33l-2.28-4-5.22,3v1l6.66,3.85,5.66-3.27Z"/><path class="cls-2" d="M218.82,361.22l1.43,2.5,1.45-.83Z"/><path class="cls-2" d="M219.66,355.4H220l-.2-.11Z"/><path class="cls-2" d="M254,344.21l-5.21,3,2.27,4L247.38,349v4.83l2.48,1.43,5-2.9v-7.69Z"/><path class="cls-2" d="M246.54,348.54l.84.48v-1Z"/><path class="cls-2" d="M247.38,349l3.71,2.14-2.27-4-1.45.84Z"/><path class="cls-2" d="M242.35,342.29v3.83l4.18,2.41.84-.48v-3.36l1.45,2.53,5.21-3-7.5-4.33Z"/><path class="cls-2" d="M247.38,348.05l1.45-.84-1.45-2.53Z"/><path class="cls-2" d="M227.35,368.27l1.84-1.06-1.84-1.06Z"/><path class="cls-2" d="M242.35,346.13v-3.83L239,344.21Z"/><path class="cls-2" d="M249.66,355.4l-2.28,1.32v5.8l.74.43,3-1.72a7.4,7.4,0,0,1,3.79-1.06v-2l-4.82-2.78Z"/><path class="cls-2" d="M248.11,362.94l-.74-.43v.85Z"/><path class="cls-2" d="M248.11,362.94l6.76,3.9v-6.68a7.4,7.4,0,0,0-3.79,1.06Z"/><path class="cls-2" d="M247.38,367.7v-4.33l-5,2.9v2l5.76,3.33.22-.13A7.36,7.36,0,0,1,247.38,367.7Z"/><path class="cls-2" d="M247.38,367.7a7.36,7.36,0,0,0,1,3.77l6.54-3.77v-.85l-6.76-3.9-.74.43Z"/><path class="cls-2" d="M221,347.3l-2.22,3.87,3.71-2.14v-.86Z"/><path class="cls-2" d="M222.53,344.69,221,347.3l1.5.86Z"/><path class="cls-2" d="M222.53,348.17l.74.43,4.08-2.36v-3.95l-4.08-2.36-7.5,4.33,5.26,3,1.5-2.61Z"/><path class="cls-2" d="M222.53,353.74V349l-3.71,2.14L221,347.3l-5.26-3-.74.43v7.81l4.82,2.78Z"/><path class="cls-2" d="M250.05,355.4l-.2-.11-.2.11Z"/><path class="cls-2" d="M222.53,348.17V349l.74-.43Z"/><path class="cls-2" d="M242.35,368.27v-2l-1.74,1Z"/><path class="cls-2" d="M227.35,342.29v3.95l3.42-2Z"/><path class="cls-2" d="M247.38,356.72l2.28-1.32h-2.28Z"/><path class="cls-2" d="M220,355.4l2.48,1.43V355.4Z"/><path class="cls-2" d="M249.66,355.4l.2-.11-2.48-1.43v1.55Z"/><path class="cls-2" d="M222.53,353.74l-2.68,1.55.2.11h2.48Z"/></svg>