<?xml version="1.0" ?><svg data-name="图层 1" id="图层_1" viewBox="0 0 500 500" xmlns="http://www.w3.org/2000/svg"><defs><style>.cls-1{fill:none;}.cls-2{fill:#231815;}</style></defs><title/><path class="cls-1" d="M236.74,245.25A82.26,82.26,0,0,1,316,214.77a76.19,76.19,0,0,1,10.36,2.59,82.65,82.65,0,0,0-64.92-68.08c-33.28-6.74-68.23,8.91-85.76,37.86a83,83,0,0,0-4.39,76.63A71.06,71.06,0,0,1,236.74,245.25Z"/><path class="cls-2" d="M171.25,263.76a83,83,0,0,1,4.39-76.63c17.54-28.95,52.48-44.6,85.76-37.86a82.65,82.65,0,0,1,64.92,68.08,78.27,78.27,0,0,1,15.84,7.19,98,98,0,0,0-63.86-86.09c-37.69-13.82-81.9-1.62-107.27,29.43-25,30.58-29.25,74.26-10,108.75A67.67,67.67,0,0,1,171.25,263.76Z"/><path class="cls-2" d="M253.07,104.67V71c0-9.65-15-9.67-15,0v33.65C238.07,114.32,253.07,114.34,253.07,104.67ZM245.57,71v0Z"/><path class="cls-2" d="M176.66,125.19c4.83,8.36,17.79.81,13-7.57L172.79,88.47c-4.83-8.36-17.79-.81-13,7.57Zm6.48-3.79L166.31,92.25Z"/><path class="cls-2" d="M141.22,160.62,112.08,143.8c-8.37-4.84-15.94,8.12-7.57,13l29.15,16.83C142,178.41,149.59,165.45,141.22,160.62Zm-32.93-10.35,29.15,16.83Z"/><path class="cls-2" d="M87.06,237h33.65c9.65,0,9.67-15,0-15H87.06C77.4,222,77.39,237,87.06,237Zm33.65-7.5h0Z"/><path class="cls-2" d="M112.08,315.26l29.15-16.83c8.36-4.83.81-17.79-7.57-13l-29.15,16.83C96.15,307.13,103.69,320.1,112.08,315.26ZM137.44,292l-29.15,16.83Z"/><path class="cls-2" d="M370.42,237h33.65c9.65,0,9.67-15,0-15H370.42C360.77,222,360.75,237,370.42,237Zm0-7.5h0Z"/><path class="cls-2" d="M357.48,173.58l29.15-16.83c8.36-4.83.81-17.79-7.57-13l-29.15,16.83C341.55,165.45,349.1,178.42,357.48,173.58Zm25.36-23.3L353.7,167.1Z"/><path class="cls-2" d="M314.47,125.19,331.3,96c4.84-8.37-8.12-15.94-13-7.57l-16.83,29.15C296.68,126,309.64,133.55,314.47,125.19Zm10.35-32.93L308,121.4Z"/><path class="cls-2" d="M377.25,266.51c.54,1.41,1,2.84,1.51,4.28l-5.24-5.24c1.26.27,2.5.6,3.73,1a83.68,83.68,0,0,0-35.1-42c.1,1.65.17,3.31.18,5,0,1.3-.05,2.6-.12,3.89a73.86,73.86,0,0,1,29.32,39.37,51.75,51.75,0,0,1-10.34,102.46H354c0,3.78,2.36,7.56,7.24,7.5A59.9,59.9,0,0,0,420,330.41C423.52,301.65,404.68,274.39,377.25,266.51Z"/><path class="cls-2" d="M378.77,270.79c-.46-1.45-1-2.87-1.51-4.28-1.23-.35-2.47-.68-3.73-1Z"/><path class="cls-2" d="M158.31,313a61.94,61.94,0,0,1,7.23-29.11c-1-1.44-1.95-2.9-2.86-4.4-.57-.94-1.12-1.9-1.65-2.86q-.81,1.33-1.57,2.71c-15.16,27.65-9.62,63.37,13.66,84.79a70.91,70.91,0,0,0,47.42,18.62c4.86.05,7.27-3.72,7.24-7.5h-7.24A62.23,62.23,0,0,1,158.31,313Z"/><path class="cls-2" d="M241.72,246.57c-1.65-.51-3.31-.94-5-1.32q-1.82,2.31-3.49,4.77Z"/><path class="cls-2" d="M220.54,250.78a62.16,62.16,0,0,1,19.18,3,73.75,73.75,0,0,1,87.48-28.16,82.09,82.09,0,0,0-.89-8.29A76.19,76.19,0,0,0,316,214.77a82.26,82.26,0,0,0-79.21,30.48c1.67.38,3.33.81,5,1.32L233.25,250q1.67-2.46,3.49-4.77a71.06,71.06,0,0,0-65.49,18.51,78.63,78.63,0,0,0,3.61,7A62.05,62.05,0,0,1,220.54,250.78Z"/><path class="cls-2" d="M165.54,283.9a62.36,62.36,0,0,1,9.32-13.13,78.63,78.63,0,0,1-3.61-7A67.67,67.67,0,0,0,161,276.64c.54,1,1.08,1.91,1.65,2.86C163.59,281,164.56,282.46,165.54,283.9Z"/><path class="cls-2" d="M342.22,233.42c.06-1.29.11-2.59.12-3.89a7.44,7.44,0,0,1-.77,3.46Z"/><path class="cls-2" d="M327.21,225.64l1,.38c3.17-6,14.22-4.79,14.15,3.5,0-1.67-.08-3.33-.18-5a78.27,78.27,0,0,0-15.84-7.19A82.09,82.09,0,0,1,327.21,225.64Z"/><path class="cls-2" d="M328.18,226a73.42,73.42,0,0,1,13.39,7,7.44,7.44,0,0,0,.77-3.46C342.4,221.24,331.35,220.07,328.18,226Z"/><path class="cls-2" d="M193.3,265.53c13.58-7.83,29.54-9.09,44.43-4.49,3.34,1,6.63-.74,8.47-3.45,14.65-21.54,41.42-33.14,67.15-28.1a66.87,66.87,0,0,1,13.82,4.31c.09-1.42.15-2.84.16-4.27s-.06-2.6-.13-3.88a73.75,73.75,0,0,0-87.48,28.16,62.23,62.23,0,0,0-64.87,17,77.22,77.22,0,0,0,4.29,6.55A54.16,54.16,0,0,1,193.3,265.53Z"/><path class="cls-2" d="M220.54,367.75c-24.5-.27-46.36-16.6-52.84-40.4a54.61,54.61,0,0,1,3-36.61q-2.71-3.29-5.14-6.84a62.23,62.23,0,0,0,55,91.35h7.24C227.75,371.52,225.34,367.8,220.54,367.75Z"/><path class="cls-2" d="M412.94,323.5a51.77,51.77,0,0,0-41.41-50.71,73.86,73.86,0,0,0-29.32-39.37q-.21,4.42-.82,8.77a66.85,66.85,0,0,1,22.91,32.59,7.54,7.54,0,0,0,5.24,5.24c22.53,4.89,38.5,25.75,35.61,49-2.74,22.09-22,38.41-44,38.7-4.78.06-7.2,3.78-7.24,7.5h7.24A51.75,51.75,0,0,0,412.94,323.5Z"/><path class="cls-2" d="M327.33,229.53c0,1.43-.07,2.85-.16,4.27q1.3.57,2.57,1.18A6.94,6.94,0,0,1,327.33,229.53Z"/><path class="cls-2" d="M332.63,236.47a67.23,67.23,0,0,1,8.76,5.72q.61-4.34.82-8.77l-.65-.43C339.93,236.22,336,237.38,332.63,236.47Z"/><path class="cls-2" d="M174.86,270.77a62.36,62.36,0,0,0-9.32,13.13q2.43,3.55,5.14,6.84a55.67,55.67,0,0,1,8.47-13.42A77.22,77.22,0,0,1,174.86,270.77Z"/><path class="cls-2" d="M329.75,235q1.46.71,2.88,1.48c3.34.91,7.3-.25,8.93-3.48a73.42,73.42,0,0,0-13.39-7,7.48,7.48,0,0,0-.85,3.5A6.94,6.94,0,0,0,329.75,235Z"/><path class="cls-2" d="M328.18,226l-1-.38c.07,1.29.12,2.58.13,3.88A7.48,7.48,0,0,1,328.18,226Z"/><path class="cls-2" d="M298.7,406v-3.28a30.24,30.24,0,0,1-2.88,1.59C296.81,404.87,297.78,405.47,298.7,406Z"/><path class="cls-2" d="M291.2,419.13v0l-7.5,4.3V429c0,9.65,15,9.67,15,0v-5.55l-7.5-4.3Z"/><path class="cls-2" d="M283.7,402.68V406c.95-.6,1.94-1.21,3-1.73A31.37,31.37,0,0,1,283.7,402.68Z"/><path class="cls-2" d="M283.7,344.22v3.29a32.43,32.43,0,0,1,2.86-1.61C285.58,345.39,284.62,344.8,283.7,344.22Z"/><path class="cls-2" d="M298.7,347.35v-3.13c-.88.55-1.8,1.12-2.75,1.62A30.46,30.46,0,0,1,298.7,347.35Z"/><path class="cls-2" d="M283.7,321.51v5.32l7.5,4.3v0h0l7.5-4.3v-5.32a7,7,0,0,0-6.54-7.18q-3.76,2.1-7.73,3.85A7.53,7.53,0,0,0,283.7,321.51Z"/><path class="cls-2" d="M284.43,318.17q4-1.75,7.73-3.85A7.52,7.52,0,0,0,284.43,318.17Z"/><path class="cls-2" d="M253.1,397.13l-8.34,4.81,8.34-4.81-7.48-4.34L241,395.47c-8.36,4.83-.81,17.79,7.57,13l4.58-2.64,0-8.65Z"/><path class="cls-2" d="M263.88,382.25l-3.2,1.85c1.07.57,2.18,1.17,3.2,1.86Z"/><path class="cls-2" d="M268.18,397.09l3.2-1.85-3.2-1.85C268.25,394.62,268.23,395.89,268.18,397.09Z"/><path class="cls-2" d="M314.22,353.18l-3,1.73,3,1.73C314.15,355.48,314.18,354.3,314.22,353.18Z"/><path class="cls-2" d="M318.72,367.91l3-1.74c-1-.53-2-1.1-3-1.73Z"/><path class="cls-2" d="M329.3,353.14l8.53-4.93-8.53,4.93,7.48,4.34,4.84-2.8c8.36-4.83.81-17.79-7.57-13l-4.77,2.76q0,4.32,0,8.65Z"/><path class="cls-2" d="M337.64,401.94l-8.34-4.81h0q0,4.32,0,8.65l4.58,2.64c8.38,4.84,15.94-8.12,7.57-13l-4.65-2.68-7.48,4.34Z"/><path class="cls-2" d="M314.23,393.5l-3.11,1.79,3.1,1.79C314.18,395.92,314.16,394.7,314.23,393.5Z"/><path class="cls-2" d="M321.72,384.09l-3-1.73v3.44C319.69,385.17,320.73,384.61,321.72,384.09Z"/><path class="cls-2" d="M260.68,366.17l3.2,1.85v-3.68C262.85,365,261.74,365.62,260.68,366.17Z"/><path class="cls-2" d="M268.17,356.76l3.11-1.79-3.1-1.79C268.22,354.35,268.24,355.57,268.17,356.76Z"/><path class="cls-2" d="M244.57,348.21l8.53,4.93h0l0-8.65-4.77-2.76c-8.37-4.84-15.94,8.12-7.57,13l4.84,2.8,7.48-4.34Z"/><path class="cls-2" d="M298.7,344.22c.76-.48,1.5-.95,2.18-1.34l8.47-4.86c8.37-4.8.82-17.77-7.57-13l-3.09,1.77v17.39Z"/><path class="cls-2" d="M280.62,325.07c-8.39-4.81-16,8.14-7.57,13l8.47,4.86c.68.39,1.42.86,2.18,1.34V326.84Z"/><path class="cls-2" d="M295,333.31H291.2v11.27h.1a11.17,11.17,0,0,1,4.65,1.27c.94-.5,1.87-1.07,2.75-1.62V326.84l-7.5,4.3Z"/><path class="cls-2" d="M287.42,333.31h3.79v-2.17Z"/><path class="cls-2" d="M291.2,333.31H295l-3.79-2.17h0Z"/><path class="cls-2" d="M291.2,344.58V333.31h-3.79l3.79-2.17h0l-7.5-4.3v17.38c.92.57,1.88,1.17,2.86,1.68A11.31,11.31,0,0,1,291.2,344.58Z"/><path class="cls-2" d="M242.48,359.31c-8.34,4.85-.8,17.82,7.57,13l8.45-4.91c.66-.38,1.4-.77,2.18-1.18l-15.06-8.69Z"/><path class="cls-2" d="M268.17,353.18c0-.88-.07-1.73-.07-2.52q0-4.88,0-9.77c0-9.65-15-9.67-15,0q0,1.8,0,3.6l7,4Z"/><path class="cls-2" d="M256.81,351,255,354.21l9.89,5.71a7.41,7.41,0,0,1,2.75-2.82l.58-.34c.07-1.19,0-2.41,0-3.58l-8.08-4.66-7-4,0,8.65Z"/><path class="cls-2" d="M253.1,353.14h0l1.85,1.07,1.85-3.22Z"/><path class="cls-2" d="M263.88,363.57a7.54,7.54,0,0,1,1-3.66L255,354.21l-1.87,3.25v-4.32h0l-7.48,4.34,15.06,8.69c1.06-.56,2.17-1.15,3.2-1.83Z"/><polygon class="cls-2" points="253.1 353.14 253.1 353.14 253.1 353.14 253.1 353.14"/><path class="cls-2" d="M253.09,357.46l1.87-3.25-1.85-1.07Z"/><path class="cls-2" d="M253.13,409.38c0,9.65,15,9.67,15,0q0-4.88,0-9.77c0-.77,0-1.63.07-2.52l-15.05,8.69Q253.13,407.58,253.13,409.38Z"/><path class="cls-2" d="M260.67,384.1c-.76-.4-1.51-.79-2.18-1.18L250,378c-8.36-4.86-15.92,8.1-7.57,13l3.14,1.83,7.1-4.1Z"/><path class="cls-2" d="M253.1,397.13l1.85-1.07-1.87-3.25Z"/><path class="cls-2" d="M253.1,397.13v-4.32l1.87,3.25,9.93-5.73a7.54,7.54,0,0,1-1-3.75V386c-1-.68-2.13-1.29-3.2-1.86l-7.95,4.59-7.1,4.1,7.48,4.34Z"/><path class="cls-2" d="M268.18,393.39l-.59-.34a7.4,7.4,0,0,1-2.7-2.73L255,396.06l1.85,3.22-3.7-2.15,0,8.65,15.05-8.69C268.23,395.89,268.25,394.62,268.18,393.39Z"/><path class="cls-2" d="M253.1,397.13l3.7,2.15L255,396.06l-1.85,1.07Z"/><polygon class="cls-2" points="253.1 397.13 253.1 397.13 253.1 397.13 253.1 397.13"/><path class="cls-2" d="M301.79,425.2c8.39,4.81,16-8.14,7.57-13l-8.47-4.86c-.68-.39-1.42-.86-2.18-1.34v17.38Z"/><path class="cls-2" d="M283.7,406c-.76.48-1.5.95-2.18,1.34L273,412.25c-8.37,4.8-.82,17.77,7.57,13l3.09-1.77V406Z"/><path class="cls-2" d="M291.2,419.13V417h-3.79Z"/><path class="cls-2" d="M291.3,405.58h-.1V417H295l-3.79,2.17,7.5,4.3V406c-.92-.58-1.89-1.18-2.88-1.69A10.87,10.87,0,0,1,291.3,405.58Z"/><path class="cls-2" d="M291.2,419.13,295,417H291.2v2.17Z"/><path class="cls-2" d="M291.2,419.13,287.42,417h3.79V405.57a11.29,11.29,0,0,1-4.55-1.26c-1,.52-2,1.14-3,1.73v17.39l7.5-4.3Z"/><path class="cls-2" d="M339.92,391c8.34-4.85.8-17.82-7.57-13l-8.45,4.91c-.66.38-1.4.77-2.18,1.18l15.06,8.69Z"/><path class="cls-2" d="M314.23,397.09c0,.88.07,1.73.07,2.52l0,9.77c0,9.65,15,9.67,15,0q0-1.8,0-3.6l-7.17-4.14Z"/><path class="cls-2" d="M329.31,392.81l-1.87,3.25,1.85,1.07Q329.3,395,329.31,392.81Z"/><path class="cls-2" d="M329.3,397.13h0l-1.85-1.07-1.85,3.22Z"/><path class="cls-2" d="M325.6,399.28l1.85-3.22-9.72-5.61a7.36,7.36,0,0,1-2.71,2.61l-.78.45c-.07,1.19,0,2.41,0,3.58l7.88,4.55,7.17,4.14q0-4.32,0-8.65Z"/><polygon class="cls-2" points="329.3 397.13 329.3 397.13 329.3 397.13 329.3 397.13"/><path class="cls-2" d="M318.72,386.58a8,8,0,0,1-.34,2.33l0,.1,0,.12a6.41,6.41,0,0,1-.59,1.31l9.72,5.61,1.87-3.25q0,2.16,0,4.32h0l7.48-4.34-15.06-8.69c-1,.52-2,1.08-3,1.7Z"/><path class="cls-2" d="M329.27,340.89c0-9.65-15-9.67-15,0l0,9.77c0,.77,0,1.63-.07,2.52l15.05-8.69Q329.27,342.69,329.27,340.89Z"/><path class="cls-2" d="M321.73,366.17c.76.4,1.51.79,2.18,1.18l8.45,4.91c8.36,4.86,15.92-8.1,7.57-13l-3.14-1.83-6.9,4Z"/><path class="cls-2" d="M329.3,353.14q0,2.16,0,4.32l-1.87-3.25-9.73,5.62a7.54,7.54,0,0,1,1,3.75v.87c1,.63,2,1.2,3,1.73l8.15-4.7,6.9-4-7.48-4.34Z"/><polygon class="cls-2" points="329.3 353.14 329.3 353.14 329.3 353.14 329.3 353.14"/><path class="cls-2" d="M314.21,356.64l.8.46a7.41,7.41,0,0,1,2.7,2.73l9.73-5.62L325.6,351l3.7,2.15q0-4.32,0-8.65l-15.05,8.69C314.18,354.3,314.15,355.48,314.21,356.64Z"/><path class="cls-2" d="M329.3,353.14,325.6,351l1.85,3.22,1.85-1.07Z"/><path class="cls-2" d="M329.3,353.14l-1.85,1.07,1.87,3.25Q329.31,355.3,329.3,353.14Z"/><path class="cls-2" d="M278.88,390.91l-7.5,4.33,7,4.06c1.53.88,3.36,2.19,5.3,3.38v-9Z"/><path class="cls-2" d="M298.7,393.81v9c1.85-1.14,3.6-2.38,5.07-3.23l7.35-4.25-7.5-4.33Z"/><path class="cls-2" d="M311.22,378l7.5,4.33v-7.11h-7.5Z"/><path class="cls-2" d="M271.38,375.25h-7.5v7l7.5-4.33Z"/><path class="cls-2" d="M311.22,372.24v3h7.5v-7.34Z"/><path class="cls-2" d="M283.7,356.46v-9c-1.77,1.1-3.45,2.28-4.87,3.1L271.28,355l7.5,4.33Z"/><path class="cls-2" d="M271.38,372.35l-7.5-4.33v7.23h7.5Z"/><path class="cls-2" d="M303.72,359.24l7.5-4.33-7-4.06c-1.58-.91-3.48-2.28-5.49-3.5v9Z"/><path class="cls-2" d="M291.2,403v-5l-7.5-4.33v9a31.37,31.37,0,0,0,3,1.63A10.22,10.22,0,0,1,291.2,403Z"/><path class="cls-2" d="M291.3,398.08l-.1-.06v5a10.37,10.37,0,0,1,4.62,1.38,30.24,30.24,0,0,0,2.88-1.59v-9Z"/><path class="cls-2" d="M291.2,347.29v4.84l.1-.06,7.4,4.27v-9a30.46,30.46,0,0,0-2.75-1.51A10.51,10.51,0,0,1,291.2,347.29Z"/><path class="cls-2" d="M291.2,352.13v-4.84a10.4,10.4,0,0,1-4.64-1.39,32.43,32.43,0,0,0-2.86,1.61v9Z"/><path class="cls-2" d="M271.38,386.58l-4.29,2.48a9.69,9.69,0,0,1,1.1,4.34l3.2,1.85,7.5-4.33Z"/><path class="cls-2" d="M267.07,389l0,0,4.29-2.48h0v-8.66l-7.5,4.33V386A10.19,10.19,0,0,1,267.07,389Z"/><path class="cls-2" d="M311.22,363.57h0l4.1-2.37a10,10,0,0,1-1.11-4.57l-3-1.73-7.5,4.33Z"/><path class="cls-2" d="M315.33,361.25l0,0-4.1,2.37v8.66l7.5-4.33v-3.46A10.46,10.46,0,0,1,315.33,361.25Z"/><path class="cls-2" d="M311.22,379c3.77,0,6.78,3.31,7.33,6.87l.17-.11v-3.44l-7.5-4.33Z"/><path class="cls-2" d="M311.12,386.64l-6.44,3.72c1.89,3.23,6.21,4.2,9.56,2.91a10.06,10.06,0,0,1,1.08-4.21Z"/><path class="cls-2" d="M314.24,393.27c-3.35,1.29-7.67.32-9.56-2.91l-1.06.61,7.5,4.33,3.11-1.79C314.23,393.42,314.24,393.35,314.24,393.27Z"/><path class="cls-2" d="M311.12,386.64l4.2,2.42,0,0a9.71,9.71,0,0,1,3.21-3.11c-.54-3.56-3.56-6.84-7.33-6.87v7.54Z"/><path class="cls-2" d="M267.08,361.21l4.29,2.48v-.11l7.4-4.27-7.5-4.33-3.11,1.79A10.34,10.34,0,0,1,267.08,361.21Z"/><path class="cls-2" d="M267.08,361.21l0,0a9.67,9.67,0,0,1-3.19,3.1V368l7.5,4.33v-8.66Z"/><path class="cls-2" d="M291.2,347.29v-2.71a11.31,11.31,0,0,0-4.64,1.32A10.4,10.4,0,0,0,291.2,347.29Z"/><path class="cls-2" d="M296,345.85a11.17,11.17,0,0,0-4.65-1.27h-.1v2.71A10.51,10.51,0,0,0,296,345.85Z"/><path class="cls-2" d="M267.59,357.1a7.41,7.41,0,0,0-2.75,2.82l2.24,1.29a10.34,10.34,0,0,0,1.09-4.45Z"/><path class="cls-2" d="M263.88,363.57v.77a9.67,9.67,0,0,0,3.19-3.1l0,0-2.24-1.29A7.54,7.54,0,0,0,263.88,363.57Z"/><path class="cls-2" d="M263.88,386v.63a7.54,7.54,0,0,0,1,3.75l2.19-1.27,0,0A10.19,10.19,0,0,0,263.88,386Z"/><path class="cls-2" d="M267.59,393.05l.59.34a9.69,9.69,0,0,0-1.1-4.34l-2.19,1.27A7.4,7.4,0,0,0,267.59,393.05Z"/><path class="cls-2" d="M291.2,405.57V403a10.22,10.22,0,0,0-4.55,1.33A11.29,11.29,0,0,0,291.2,405.57Z"/><path class="cls-2" d="M291.3,405.58a10.87,10.87,0,0,0,4.52-1.22A10.37,10.37,0,0,0,291.2,403v2.6Z"/><path class="cls-2" d="M317.72,390.45a6.41,6.41,0,0,0,.59-1.31,6.66,6.66,0,0,1-.6,1.31Z"/><path class="cls-2" d="M318.36,389l0,.12Z"/><path class="cls-2" d="M315.33,389l0,0,2.39,1.38a6.66,6.66,0,0,0,.6-1.31l0-.12,0-.1a7.07,7.07,0,0,0,.16-3A9.71,9.71,0,0,0,315.33,389Z"/><path class="cls-2" d="M318.39,388.91l0,.1Z"/><path class="cls-2" d="M314.24,393.27c0,.08,0,.16,0,.24l.78-.45a7.36,7.36,0,0,0,2.71-2.61h0A6.86,6.86,0,0,1,314.24,393.27Z"/><path class="cls-2" d="M317.71,390.44l-2.39-1.38a10.06,10.06,0,0,0-1.08,4.21A6.86,6.86,0,0,0,317.71,390.44Z"/><path class="cls-2" d="M318.39,388.91a8,8,0,0,0,.34-2.33v-.78l-.17.11A7.07,7.07,0,0,1,318.39,388.91Z"/><path class="cls-2" d="M318.72,364.44v-.87a7.54,7.54,0,0,0-1-3.75l-2.39,1.38,0,0A10.46,10.46,0,0,0,318.72,364.44Z"/><path class="cls-2" d="M315,357.1l-.8-.46a10,10,0,0,0,1.11,4.57l2.39-1.38A7.41,7.41,0,0,0,315,357.1Z"/><path class="cls-2" d="M271.38,375.25v2.67l4.62-2.67Z"/><path class="cls-2" d="M278.88,390.91l4.82,2.78v-5.57Z"/><path class="cls-2" d="M298.7,393.81l4.92-2.84-4.92-2.84Z"/><path class="cls-2" d="M311.22,378v-2.78H306.4Z"/><path class="cls-2" d="M303.72,359.24l-5-2.9v5.8Z"/><path class="cls-2" d="M306.4,375.25h4.82v-3l-5,2.9Z"/><path class="cls-2" d="M283.7,356.46l-4.92,2.84,4.92,2.84Z"/><path class="cls-2" d="M276.2,375.13l-4.82-2.78v2.9H276Z"/><path class="cls-2" d="M287.51,391.6h3.69v-2.13Z"/><path class="cls-2" d="M291.2,389.48l.1-.06-.1-.06Z"/><path class="cls-2" d="M287.51,391.6l3.69-2.13v-.11l-4.82-2.78-2.68,1.55v5.57l7.5,4.33V391.6Z"/><path class="cls-2" d="M296.12,386.64l-4.82,2.78,3.79,2.19H291.2V398l.1.06,7.4-4.27v-5.68Z"/><path class="cls-2" d="M291.2,391.6h3.88l-3.79-2.19-.1.06Z"/><path class="cls-2" d="M295.08,358.55l-3.79,2.19,4.92,2.84,2.48-1.43v-5.8l-7.4-4.27-.1.06v6.42Z"/><path class="cls-2" d="M295.08,358.55H291.2v2.13l.1.06Z"/><path class="cls-2" d="M291.2,360.68v.11l.1-.06Z"/><path class="cls-2" d="M283.7,362.14l2.58,1.49,4.92-2.84v-.11l-3.69-2.13h3.69v-6.42l-7.5,4.33Z"/><path class="cls-2" d="M287.51,358.55l3.69,2.13v-2.13Z"/><path class="cls-2" d="M275.16,380.1l3.71,2.14v-5.57l-2.48-1.43H276l-4.62,2.67v8.66h0l5.63-3.25Z"/><path class="cls-2" d="M278.88,386.58v-4.33L277,383.33Z"/><polygon class="cls-2" points="278.88 382.25 278.88 382.25 278.88 382.25 278.88 382.25"/><path class="cls-2" d="M275.16,380.1l1.85,3.22,1.87-1.08h0Z"/><path class="cls-2" d="M283.7,385l-4.82-2.78h0v4.33L277,383.33l-5.63,3.25,7.5,4.33,4.82-2.78Z"/><polygon class="cls-2" points="303.72 367.9 303.72 367.91 303.72 367.9 303.72 367.9"/><path class="cls-2" d="M303.72,367.91l3.71,2.15-1.85-3.22-1.87,1.08Z"/><path class="cls-2" d="M276,375.25h.39l-.2-.11Z"/><path class="cls-2" d="M303.72,367.9l1.87-1.08-1.87-3.25Z"/><path class="cls-2" d="M298.7,365l5,2.9h0v-4.33l1.87,3.25,5.63-3.25h0l-7.5-4.33-5,2.9Z"/><path class="cls-2" d="M305.59,366.83l1.85,3.22-3.71-2.15v5.79l2.48,1.43,5-2.9v-8.66Z"/><path class="cls-2" d="M283.7,388.13l2.68-1.55L283.7,385Z"/><path class="cls-2" d="M298.7,362.14l-2.48,1.43L298.7,365Z"/><path class="cls-2" d="M303.72,382.25v.12l7.4,4.27.1-.06V379a7.41,7.41,0,0,0-3.79,1.06Z"/><path class="cls-2" d="M306,375.25l-2.28,1.32v5.68l3.71-2.14a7.41,7.41,0,0,1,3.79-1.06v-1l-4.82-2.78Z"/><path class="cls-2" d="M303.72,382.36l-.1-.06-4.92,2.84v3l4.92,2.84,1.06-.61a7.36,7.36,0,0,1-1-3.77Z"/><path class="cls-2" d="M303.72,382.36v-.12l-.1.06Z"/><path class="cls-2" d="M303.72,382.36v4.22a7.36,7.36,0,0,0,1,3.77l6.44-3.72Z"/><path class="cls-2" d="M278.88,363.57,277,366.91l1.82,1,.1-.06Z"/><path class="cls-2" d="M278.78,368l.1.06v-.11Z"/><path class="cls-2" d="M306.4,375.25l-.2-.11-.2.11Z"/><path class="cls-2" d="M278.88,373.59V368l-.1-.06-3.62,2.09,1.8-3.14-5.58-3.22v8.66l4.82,2.78Z"/><path class="cls-2" d="M278.88,367.91l4.82-2.78v-3l-4.92-2.84-7.4,4.27v.11l5.58,3.22,1.92-3.34Z"/><path class="cls-2" d="M275.16,370.05l3.62-2.09-1.82-1Z"/><path class="cls-2" d="M298.7,388.13v-3l-2.58,1.49Z"/><path class="cls-2" d="M286.28,363.63l-2.58-1.49v3Z"/><path class="cls-2" d="M303.72,376.57l2.28-1.32h-2.28Z"/><path class="cls-2" d="M276.4,375.25l2.48,1.43v-1.43Z"/><path class="cls-2" d="M306,375.25l.2-.11-2.48-1.43v1.55Z"/><path class="cls-2" d="M278.88,373.59l-2.68,1.55.2.11h2.48Z"/></svg>